<svg xmlns="http://www.w3.org/2000/svg" width="10.342" height="13.826" viewBox="0 0 10.342 13.826"><defs><style>.a{fill:#208ce1;}</style></defs><g transform="translate(0)"><g transform="translate(0)"><path class="a" d="M10.342,5.168A5.184,5.184,0,0,0,5.366,0L5.3,0H5.235L5.168,0H5.035L4.97,0A5.176,5.176,0,0,0,0,5.168q0,.09,0,.18t0,.193A5.839,5.839,0,0,0,.092,6.582c0,.02.014.081.035.185A5.727,5.727,0,0,0,.473,7.86a15.421,15.421,0,0,0,4.468,5.879.347.347,0,0,0,.46,0A15.448,15.448,0,0,0,9.869,7.86a5.667,5.667,0,0,0,.346-1.093c.022-.1.032-.165.035-.185a6.1,6.1,0,0,0,.092-1.041c0-.065,0-.129,0-.194S10.342,5.228,10.342,5.168Zm-2.629.239a2.551,2.551,0,0,1-5.09,0q-.007-.091-.007-.182a2.552,2.552,0,0,1,5.1,0Q7.72,5.317,7.713,5.407Z" transform="translate(0)"/></g></g></svg>